# xmcd CD database file
# Copyright (C) 1993-1996 Ti Kan
#
# Track frame offsets:
#	150
#	19657
#	38165
#	61005
#	79490
#	102725
#	118215
#	140522
#	161425
#	181712
#	207317
#	228255
#	247200
#
# Disc length: 3517 seconds
#
# Revision: 1
# Processed by: cddbd v1.4b41PL1 Copyright (c) Steve Scherf et al.
# Submitted via: CDValet v3.01 - Copyright (c) 1997 Greg Leichner
#
DISCID=b20dbb0d
DTITLE=Mick Hanly - Happy Like This
DYEAR=1900
DGENRE=
TTITLE0=Happy Like This
TTITLE1=Nobody Told Me
TTITLE2=I Feel I Should Be Calling You
TTITLE3=Geronimo's Child
TTITLE4=One More From The Daddy
TTITLE5=A Fagan Place
TTITLE6=These Days
TTITLE7=Blessed
TTITLE8=No Mercy
TTITLE9=Medicine Man
TTITLE10=The Piano Tuner
TTITLE11=The Writing On The Wall
TTITLE12=I Could Have Missed Her By A Whisker
EXTD=
EXTT0=
EXTT1=
EXTT2=
EXTT3=
EXTT4=
EXTT5=
EXTT6=
EXTT7=
EXTT8=
EXTT9=
EXTT10=
EXTT11=
EXTT12=
PLAYORDER=
